# xmcd
#
# Track frame offsets:
#	183
#	12443
#	22360
#	33755
#	42110
#	50378
#	60265
#	73028
#	85440
#	95165
#	104380
#	114443
#
# Disc length: 1659 seconds
#
# Revision: 0
# Processed by: cddbd v1.4PL0 Copyright (c) Steve Scherf et al.
# Submitted via: MusicWizard 6.0.0
#
DISCID=9c06790c
DTITLE=Johnny Cash - I Walk The Line
DYEAR=1900
DGENRE=Country
TTITLE0=I Walk The Line
TTITLE1=Ballad Of A Teenage Queen
TTITLE2=Big River
TTITLE3=Wreck Of The Old 97
TTITLE4=Guess Things Happen That Way
TTITLE5=Born To Lose
TTITLE6=Folsom Prison Blues
TTITLE7=Give My Love To Rose
TTITLE8=Rock Island Line
TTITLE9=Luther Played The Boogie
TTITLE10=Straight A's In Love
TTITLE11=Get Rhythm
EXTD=(c) Arc Records\nupc 2906531170091
EXTT0=
EXTT1=
EXTT2=
EXTT3=
EXTT4=
EXTT5=
EXTT6=
EXTT7=
EXTT8=
EXTT9=
EXTT10=
EXTT11=
PLAYORDER=
